<svg width="144" height="144" viewBox="0 0 144 144" fill="none" xmlns="http://www.w3.org/2000/svg">
<path d="M132.171 111.024L77.307 27.3601C74.715 23.4721 68.379 23.4721 65.931 27.3601L10.923 111.024C8.33095 114.768 11.499 119.664 16.683 119.664H126.411C131.451 119.52 134.619 114.768 132.171 111.024ZM71.547 110.592C68.955 110.592 66.795 108.432 66.795 105.84C66.795 103.248 68.955 101.088 71.547 101.088C74.139 101.088 76.299 103.248 76.299 105.84C76.299 108.432 74.139 110.592 71.547 110.592ZM79.755 56.0161L74.571 94.0321C74.427 95.6161 72.987 96.7681 71.403 96.7681C69.819 96.7681 68.523 95.6161 68.235 94.0321L63.051 56.0161C62.763 54.1441 64.203 52.4161 66.219 52.4161H76.587C78.603 52.4161 80.043 54.1441 79.755 56.0161Z" fill="#3B4652"/>
</svg>
